# xmcd
#
# Track frame offsets: 
#        150
#        23543
#        40475
#        60368
#        79941
#        96504
#        109311
#        127568
#        142336
#        156598
#        170678
#        184691
#        201405
#        214302
#        228823
#        246694
#        263069
#        280292
#        296122
#        313492
#
# Disc length: 4377 seconds
#
# Revision: 0
# Processed by: cddbd v1.5.2PL0 Copyright (c) Steve Scherf et al.
# Submitted via: ExactAudioCopyFreeDBPlugin 1.0
#
DISCID=3e111714
DTITLE=เสรี รุ่งสว่าง - จดหมายจากแม่
DYEAR=2006
DGENRE=Country
TTITLE0=จดหมายจากแม่
TTITLE1=ร้องเพลงเพื่อแม่
TTITLE2=ไอ้หนุ่มทุ่งกระโจมทอง
TTITLE3=คนกล่อมโลก
TTITLE4=ไอ้หนุ่มรถซุง
TTITLE5=กอดแก้จน
TTITLE6=คนจนเจ้าเก่า
TTITLE7=ไอ้หนุ่มรถเมล์
TTITLE8=ไอ้หนุ่มสุพรรณ
TTITLE9=ปิ๊กบ้านเฮาเต๊อะ
TTITLE10=ช้ำรักจากเมืองย่าโม
TTITLE11=ส.บ.ม.
TTITLE12=น้ำใจคนแนวหลัง
TTITLE13=เห็นหน้าก็รัก
TTITLE14=คนสวย ป.4
TTITLE15=พรุ่งนี้พี่ร้องไห้
TTITLE16=ยังรักยังอาลัย
TTITLE17=ไปดีเถิดแจ๋ว
TTITLE18=เสริมสวยรวยรัก
TTITLE19=หอรักห่วงเรียน
EXTD=
EXTT0=
EXTT1=
EXTT2=
EXTT3=
EXTT4=
EXTT5=
EXTT6=
EXTT7=
EXTT8=
EXTT9=
EXTT10=
EXTT11=
EXTT12=
EXTT13=
EXTT14=
EXTT15=
EXTT16=
EXTT17=
EXTT18=
EXTT19=
PLAYORDER=
